<svg width="24" height="25" xmlns="http://www.w3.org/2000/svg"><path d="M12 .5C5.373.5 0 5.873 0 12.5s5.373 12 12 12 12-5.373 12-12a12 12 0 00-12-12zm6.017 10.786a3.562 3.562 0 01-2.047 1.54c-.186.06-.38.093-.574.096a.682.682 0 010-1.363.367.367 0 00.151-.029 2.143 2.143 0 001.31-.96c.172-.28.261-.6.26-.928 0-1.078-.996-1.966-2.21-1.966-.42 0-.834.11-1.2.314a1.92 1.92 0 00-1.025 1.652v5.724a3.245 3.245 0 01-1.704 2.822c-.57.32-1.216.486-1.87.48-1.978 0-3.6-1.488-3.6-3.329a3.192 3.192 0 01.463-1.637 3.562 3.562 0 012.047-1.54c.186-.06.38-.092.574-.096a.682.682 0 110 1.363.367.367 0 00-.151.029 2.249 2.249 0 00-1.31.96c-.172.28-.261.6-.26.928 0 1.078.996 1.966 2.225 1.966.42 0 .833-.11 1.2-.314a1.92 1.92 0 001.022-1.652V9.65a3.252 3.252 0 011.707-2.825 3.545 3.545 0 011.855-.504c1.978 0 3.6 1.488 3.6 3.329a3.192 3.192 0 01-.463 1.637z" fill="#FFF" fill-rule="nonzero"/></svg>